<svg id="Layer_2" data-name="Layer 2" xmlns="http://www.w3.org/2000/svg" width="80" height="80" viewBox="0 0 80 80">
  <g id="Isolation_Mode" data-name="Isolation Mode">
    <g id="Group_23116" data-name="Group 23116">
      <path id="Path_28847" data-name="Path 28847" d="M40,2.5A37.5,37.5,0,1,1,2.5,40,37.551,37.551,0,0,1,40,2.5M40,0A40,40,0,1,0,80,40,39.995,39.995,0,0,0,40,0Z" fill="#7A126B"/>
      <g id="Group_23115" data-name="Group 23115" transform="translate(15.946 15.304)">
        <path id="Path_28848" data-name="Path 28848" d="M50.059,19.338a37.075,37.075,0,0,0-1.6,5.529c-.5,1.821-1.47,2.238-2.809.944-.944-.9-1.47-.439-2.106.2q-4.213,4.246-8.426,8.47c-1.777,1.8-2.238,1.8-4.125.066-.878-.812-1.777-1.58-2.611-2.414a1.076,1.076,0,0,0-1.777.022c-3.993,4.257-7.965,8.535-11.958,12.792H12.692a2.132,2.132,0,0,1,.132-3.269c4.235-4.388,8.426-8.8,12.639-13.209,1.514-1.58,2.216-1.58,3.818-.154,1.031.943,2.128,1.843,3.116,2.83.527.527.79.439,1.273-.066,2.567-2.611,5.178-5.2,7.789-7.767.724-.7.549-1.185-.11-1.843-1.58-1.558-1.273-2.523.9-3.072,1.931-.483,3.906-.9,5.793-1.514a1.785,1.785,0,0,1,2.019.461v1.953Z" transform="translate(-1.628 4.7)" fill="#7A126B"/>
        <path id="Path_28849" data-name="Path 28849" d="M30.049,13.876v-.658c0-2.984-.066-3.028-2.918-2.194a26.825,26.825,0,0,0-7.636,3.423c-1.338.922-1.119,1.448-.088,2.326.987.834,1.843,1.8,2.765,2.721a1.6,1.6,0,0,1,.176,2.436,1.582,1.582,0,0,1-2.545.044c-1.119-1.1-2.238-2.194-3.313-3.335-.483-.5-.834-.5-1.273.044a21.34,21.34,0,0,0-4.366,10.466c-.11.812.373.856.987.856,1.4,0,2.809.044,4.235,0,1.251-.044,2.216.241,2.194,1.69-.022,1.317-.922,1.668-2.128,1.624-1.4-.044-2.809.022-4.213-.022-.856-.044-1.185.219-1.053,1.1a22.1,22.1,0,0,0,4.191,10.027c.527.68.987.636,1.558.022,1.031-1.1,2.128-2.128,3.2-3.182a1.552,1.552,0,0,1,2.414,0,1.492,1.492,0,0,1-.088,2.392c-1.646,1.624-3.247,3.291-4.893,4.937-1.251,1.229-1.953,1.251-3.116.022A24.84,24.84,0,0,1,7.58,35.357a24.343,24.343,0,0,1,14.7-26.33c8.579-3.533,16.807-2.5,24.355,3.072a24.417,24.417,0,0,1,7.921,10.027,11.17,11.17,0,0,1,.57,1.843,1.577,1.577,0,0,1-1.1,2.172,1.623,1.623,0,0,1-2.172-1.163,21.63,21.63,0,0,0-5.617-8.733c-3.269-3.2-7.263-4.739-11.629-5.573-.812-.154-1.053.176-1.031.944.044,1.448,0,2.918,0,4.366,0,1.207-.483,2.041-1.777,2.041-1.273,0-1.777-.834-1.777-2.041V13.876Z" transform="translate(-7.268 -6.975)" fill="#7A126B"/>
        <path id="Path_28850" data-name="Path 28850" d="M20.018,28.633a3.641,3.641,0,0,1-3.642-2.611A3.6,3.6,0,0,1,18.2,21.634c4.147-2.523,8.316-5,12.463-7.5.592-.351,1.185-.724,1.821-1.075.527-.285,1.163-.614,1.624-.044.483.592,0,1.053-.417,1.536l-6.583,7.57c-1.448,1.668-2.9,3.335-4.279,5.047A3.9,3.9,0,0,1,20,28.611Z" transform="translate(3.399 -0.141)" fill="#7A126B"/>
      </g>
    </g>
  </g>
</svg>
